<svg xmlns="http://www.w3.org/2000/svg" viewBox="0 0 1024 1024" width="1024" height="1024">
  <rect width="1024" height="1024" fill="#007AFF" />
  <g transform="translate(0.000000,1024.000000) scale(0.100000,-0.100000)" fill="#4F4F4F" stroke="none">
    <path d="M7305 7873 c-44 -2 -87 -6 -95 -10 -8 -3 -31 -5 -50 -5 -49 3 -199
-18 -205 -28 -3 -5 -43 -11 -90 -15 -47 -4 -88 -11 -91 -16 -3 -5 -16 -9 -28
-9 -13 0 -46 -6 -72 -14 -27 -8 -79 -22 -116 -31 -38 -10 -68 -22 -68 -27 0
-6 -7 -8 -15 -5 -8 4 -17 2 -20 -3 -4 -6 -17 -10 -30 -10 -13 0 -26 -4 -30 -9
-3 -5 -20 -13 -38 -16 -17 -4 -56 -18 -85 -31 -29 -13 -62 -24 -73 -24 -11 0
-22 -7 -25 -15 -4 -8 -15 -15 -25 -15 -10 0 -19 -4 -19 -10 0 -5 -7 -10 -15
-10 -8 0 -30 -9 -50 -20 -20 -11 -42 -20 -50 -20 -8 0 -15 -4 -15 -10 0 -5 -9
-10 -20 -10 -11 0 -23 -7 -26 -15 -4 -8 -14 -15 -23 -15 -9 0 -22 -5 -28 -11
-13 -13 -85 -53 -125 -70 -16 -6 -28 -15 -28 -19 0 -5 -24 -20 -53 -34 -29
-13 -61 -34 -71 -45 -10 -11 -22 -19 -26 -16 -4 2 -20 -9 -35 -25 -16 -17 -35
-30 -43 -30 -8 0 -23 -11 -34 -25 -11 -14 -28 -25 -39 -25 -10 0 -24 -9 -31
-20 -7 -11 -20 -20 -28 -20 -9 0 -31 -16 -50 -35 -19 -19 -39 -35 -45 -35 -6
0 -31 -20 -55 -45 -24 -25 -49 -45 -55 -45 -6 0 -40 -29 -75 -65 -35 -36 -69
-65 -75 -65 -13 0 -585 -572 -585 -586 0 -5 -15 -25 -33 -42 -31 -30 -35 -32
-68 -21 -19 7 -38 16 -43 20 -6 5 -26 9 -46 9 -20 0 -40 4 -46 9 -42 40 -466
40 -509 0 -5 -5 -23 -9 -40 -9 -28 0 -64 -12 -115 -39 -9 -5 -30 -12 -48 -16
-18 -3 -32 -11 -32 -16 0 -6 -4 -8 -9 -5 -11 7 -65 -19 -81 -39 -7 -8 -20 -15
-30 -15 -10 0 -20 -7 -24 -15 -3 -8 -12 -15 -19 -15 -8 0 -20 -7 -27 -15 -7
-8 -20 -15 -30 -15 -10 0 -30 -13 -43 -30 -14 -16 -32 -30 -40 -30 -7 0 -24
-11 -37 -25 -13 -14 -28 -25 -35 -25 -6 0 -37 -27 -70 -60 -33 -33 -64 -60
-70 -60 -5 0 -19 -12 -30 -26 -37 -49 -178 -194 -189 -194 -6 -1 -20 -13 -31
-27 -11 -15 -55 -63 -97 -108 -43 -45 -78 -86 -78 -91 0 -6 -16 -25 -35 -44
-19 -19 -35 -39 -35 -45 0 -6 -16 -26 -35 -45 -19 -19 -35 -42 -35 -51 0 -10
-8 -24 -18 -31 -9 -7 -23 -26 -30 -41 -6 -15 -19 -30 -27 -33 -8 -4 -15 -14
-15 -24 0 -11 -5 -22 -11 -25 -5 -4 -15 -17 -20 -28 -15 -34 -34 -65 -51 -84
-9 -10 -22 -35 -29 -57 -8 -21 -20 -41 -26 -43 -7 -3 -13 -11 -13 -19 0 -15
-17 -48 -37 -74 -6 -8 -12 -19 -14 -25 -4 -21 -12 -42 -37 -95 -15 -30 -27
-58 -27 -62 0 -3 -3 -10 -7 -14 -5 -4 -8 -16 -8 -26 0 -10 -4 -18 -9 -18 -10
0 -25 -60 -25 -102 -1 -20 19 -47 83 -113 77 -79 89 -87 130 -92 40 -4 49 -2
70 21 14 14 29 26 36 26 6 0 33 23 60 50 27 28 54 50 61 50 6 0 19 9 29 20 10
11 25 20 33 20 8 0 25 11 38 25 13 14 29 25 35 25 7 0 23 10 35 21 22 21 43
34 89 59 11 6 34 19 50 30 17 11 42 25 58 31 15 6 27 15 27 20 0 5 6 9 14 9 8
0 31 9 53 20 34 18 90 42 103 44 3 1 10 5 17 9 7 4 28 8 48 9 20 1 38 5 41 10
7 12 202 10 209 -2 4 -6 11 -8 16 -4 5 3 21 -2 34 -10 14 -9 25 -14 25 -10 0
4 7 1 15 -6 11 -9 12 -17 5 -30 -6 -10 -10 -32 -10 -48 0 -16 -3 -32 -7 -36
-22 -22 -3 -52 101 -155 118 -116 132 -143 96 -176 -11 -10 -20 -24 -20 -30 0
-7 -7 -18 -15 -25 -8 -7 -15 -21 -15 -31 0 -11 -4 -19 -10 -19 -5 0 -10 -6
-10 -14 0 -8 -11 -28 -25 -44 -14 -17 -25 -35 -25 -41 0 -6 -4 -11 -10 -11 -5
0 -10 -9 -10 -19 0 -11 -5 -23 -11 -26 -5 -4 -15 -18 -20 -33 l-10 -25 -30 29
-30 28 -462 -462 -462 -462 95 -95 95 -95 -123 -123 c-67 -67 -122 -125 -122
-128 0 -5 140 -147 195 -198 3 -2 13 3 23 12 10 10 21 15 24 12 2 -3 33 24 68
61 l63 65 95 -96 95 -97 501 501 500 500 -32 34 c-35 36 -39 47 -19 47 15 0
54 19 102 51 17 10 42 24 58 30 15 6 27 15 27 20 0 5 15 15 34 23 18 8 37 19
40 25 4 6 11 9 16 6 5 -3 15 3 22 13 7 10 26 22 42 26 27 7 37 -1 147 -110 93
-91 122 -115 136 -109 40 17 118 34 123 27 4 -4 18 -36 31 -72 29 -79 32 -218
5 -272 -9 -17 -19 -46 -22 -62 -4 -30 -24 -81 -44 -118 -6 -10 -10 -25 -10
-33 0 -8 -4 -15 -8 -15 -4 0 -13 -12 -20 -27 -23 -52 -43 -83 -53 -83 -5 0 -9
-8 -9 -19 0 -10 -7 -24 -15 -31 -8 -7 -15 -18 -15 -24 0 -7 -11 -23 -25 -36
-14 -13 -25 -29 -25 -35 0 -7 -9 -20 -20 -30 -11 -10 -20 -26 -20 -35 0 -9
-13 -29 -30 -45 -16 -16 -30 -34 -30 -40 0 -6 -13 -24 -30 -40 -16 -16 -30
-33 -30 -39 0 -6 -16 -27 -36 -47 -30 -31 -38 -47 -42 -89 l-5 -52 89 -89 c80
-80 92 -89 126 -89 20 0 40 5 43 10 4 6 11 7 17 4 6 -4 13 -2 17 4 3 6 18 12
31 14 14 2 32 8 40 13 31 20 63 35 75 35 7 0 15 7 19 15 3 8 11 15 18 15 7 0
54 21 106 48 140 71 147 74 150 84 2 4 12 8 22 8 9 0 23 7 30 15 7 8 18 15 24
15 7 0 23 11 36 25 12 13 26 22 30 20 4 -3 15 4 25 15 10 11 25 20 33 20 8 0
23 11 34 25 11 14 28 25 38 25 10 0 30 14 43 30 14 17 32 30 39 30 8 0 34 20
58 45 24 25 48 45 54 45 5 0 37 26 70 58 34 31 76 68 93 82 18 14 33 30 33 35
0 6 83 93 185 195 102 102 185 190 185 196 0 5 14 23 30 39 17 16 30 34 30 40
0 7 9 20 20 30 12 10 19 24 16 32 -3 7 6 21 19 32 14 10 25 26 25 34 0 8 7 20
15 27 8 7 15 16 15 21 0 5 11 26 24 47 13 21 27 52 31 70 3 17 10 32 14 32 7
0 27 64 37 123 3 20 10 37 15 37 8 0 25 85 21 108 -2 6 1 12 7 12 15 0 23 198
11 280 -6 41 -13 91 -15 110 -2 19 -17 73 -34 120 l-31 84 37 38 c20 21 42 38
48 38 14 0 625 611 625 625 0 6 25 35 55 65 30 30 55 59 55 65 0 6 18 28 40
50 21 21 37 41 35 45 -2 4 11 22 30 40 19 19 35 39 35 45 0 6 14 24 30 40 17
16 30 36 30 45 0 9 9 25 20 35 11 10 20 24 20 31 0 7 11 21 25 32 14 11 25 26
25 34 0 8 9 23 20 33 11 10 20 23 20 30 0 7 9 20 20 30 11 10 17 21 15 25 -2
4 4 15 15 25 11 10 20 27 20 37 0 10 7 21 15 24 8 4 15 14 16 23 0 9 9 30 20
46 10 17 23 40 28 52 5 11 15 24 20 28 6 3 11 15 11 26 0 10 5 19 10 19 6 0
10 6 10 13 0 7 18 49 40 92 22 43 37 81 35 85 -3 4 1 10 9 13 7 3 16 19 19 36
4 17 16 51 27 75 11 25 20 52 20 60 0 9 4 16 9 16 7 0 15 26 25 80 1 3 5 10 9
17 4 6 11 31 16 55 10 48 31 135 39 158 3 8 7 26 9 40 2 14 8 34 12 45 11 23
34 146 30 160 -1 6 1 17 4 25 13 32 37 355 38 520 l1 175 -94 95 -93 95 -150
1 c-82 0 -186 -1 -230 -3z m102 -510 c-3 -27 -8 -82 -10 -123 -7 -127 -19
-230 -27 -230 -7 0 -18 -61 -26 -135 -1 -11 -9 -46 -18 -78 -9 -32 -16 -66
-16 -75 0 -9 -7 -30 -15 -46 -8 -15 -13 -32 -10 -36 3 -5 0 -23 -7 -40 l-13
-30 -349 349 -349 349 38 16 c21 9 50 18 64 20 14 1 33 6 41 9 16 7 247 56
290 61 14 2 66 7 115 11 50 4 97 11 105 16 8 5 55 9 104 9 l88 0 -5 -47z
m-667 -820 c0 -16 36 -53 52 -53 16 0 58 -41 58 -57 0 -17 36 -53 53 -53 17 0
169 -157 187 -193 11 -22 12 -32 2 -47 -7 -11 -12 -26 -12 -34 0 -8 -7 -16
-15 -20 -8 -3 -15 -15 -15 -26 0 -11 -4 -20 -10 -20 -5 0 -10 -8 -11 -17 0
-10 -14 -40 -30 -68 -15 -27 -32 -59 -38 -70 -5 -12 -16 -27 -25 -34 -9 -7
-16 -22 -16 -33 0 -10 -7 -21 -15 -24 -8 -4 -15 -14 -15 -24 0 -9 -9 -25 -20
-35 -11 -10 -20 -23 -20 -30 0 -6 -11 -22 -25 -35 -14 -13 -25 -29 -25 -35 0
-6 -13 -24 -30 -40 -16 -15 -27 -31 -25 -35 2 -4 -9 -20 -25 -35 -17 -16 -30
-36 -30 -46 0 -9 -18 -33 -40 -53 -22 -20 -40 -42 -40 -49 0 -7 -25 -37 -55
-67 -30 -30 -55 -59 -55 -65 0 -13 -452 -465 -465 -465 -6 0 -35 -25 -65 -55
-30 -30 -60 -55 -67 -55 -7 0 -29 -18 -49 -40 -20 -22 -44 -40 -54 -40 -10 0
-34 -18 -54 -40 -20 -22 -42 -40 -49 -40 -7 0 -26 -13 -42 -30 -16 -16 -34
-30 -40 -30 -6 0 -22 -11 -35 -25 -13 -14 -31 -25 -39 -25 -9 0 -22 -9 -29
-20 -7 -11 -20 -20 -30 -20 -10 0 -24 -9 -32 -20 -8 -11 -22 -20 -31 -20 -9 0
-24 -9 -34 -20 -10 -11 -23 -20 -30 -20 -7 0 -20 -9 -30 -20 -19 -21 -70 -50
-89 -50 -6 0 -17 -9 -24 -20 -7 -11 -21 -20 -32 -20 -11 0 -20 -4 -20 -10 0
-5 -9 -10 -19 -10 -11 0 -23 -5 -26 -11 -4 -5 -17 -15 -28 -20 -12 -5 -35 -18
-52 -28 -16 -11 -37 -20 -46 -20 -9 -1 -19 -7 -22 -15 -3 -8 -21 -17 -39 -21
-18 -4 -43 -16 -55 -28 -13 -11 -23 -17 -23 -12 0 4 -8 1 -17 -7 -10 -9 -32
-19 -50 -22 -17 -4 -34 -14 -37 -22 -3 -8 -11 -14 -18 -13 -7 2 -37 -9 -65
-23 -29 -15 -53 -24 -53 -21 0 8 44 42 55 43 6 0 35 25 65 55 30 30 61 55 70
55 20 0 320 301 320 321 0 9 18 33 40 53 22 20 40 42 40 49 0 8 11 24 25 37
14 13 25 29 25 36 0 6 7 17 15 24 17 14 45 67 45 87 0 7 5 13 10 13 6 0 10 7
10 15 0 8 9 31 20 50 11 20 20 42 18 48 -1 7 6 29 15 50 24 55 40 194 35 313
l-4 104 -74 76 c-105 105 -137 118 -269 110 -58 -4 -110 -11 -116 -15 -5 -5
-29 -9 -52 -9 -23 -1 -57 -8 -75 -16 -18 -8 -55 -20 -81 -26 -26 -6 -55 -14
-65 -19 -9 -5 -42 -21 -73 -35 -30 -14 -66 -37 -79 -51 -13 -14 -29 -25 -35
-25 -6 0 -22 -12 -36 -26 -13 -14 -32 -29 -41 -33 -23 -8 -448 -432 -448 -446
0 -6 -21 -31 -46 -55 l-46 -45 31 60 c17 33 31 65 31 72 0 7 5 13 10 13 6 0
10 9 10 19 0 11 4 22 9 26 5 3 12 18 16 34 3 16 12 35 20 41 8 6 12 17 9 24
-3 8 2 16 10 19 9 4 16 13 16 20 0 16 41 100 61 125 25 31 40 63 34 72 -4 6
-2 10 3 10 6 0 15 14 21 30 5 17 14 30 18 30 5 0 14 12 21 28 17 38 36 69 55
90 10 10 17 23 17 29 0 6 7 16 16 23 8 8 21 28 29 47 8 18 19 33 24 33 6 0 11
6 11 14 0 8 11 28 25 44 14 17 25 34 25 39 0 5 14 22 30 38 17 16 30 34 30 40
0 6 11 22 25 35 14 13 25 29 25 37 0 7 18 29 40 49 22 20 40 44 40 53 0 9 18
35 40 56 22 21 40 44 40 51 0 6 27 37 60 68 33 32 60 63 60 69 0 16 411 427
427 427 7 0 33 23 59 50 26 28 52 50 58 50 7 0 27 16 46 35 19 19 40 35 47 35
7 0 33 18 57 40 24 22 48 40 53 40 5 0 22 14 38 30 16 17 34 30 40 30 6 0 22
11 35 25 12 13 26 22 30 20 4 -3 15 4 25 15 10 11 26 20 37 20 10 0 18 5 18
11 0 5 15 16 34 24 19 8 38 20 41 25 4 6 17 16 28 21 12 5 36 18 52 28 17 11
38 20 48 20 10 1 20 8 23 16 4 8 12 15 19 15 8 0 20 7 29 15 8 9 19 15 23 14
11 -3 45 12 63 26 41 35 46 30 338 -259 155 -154 282 -287 282 -293z m-2685
-755 c-4 -13 -20 -37 -36 -53 -16 -17 -29 -35 -29 -40 0 -4 -7 -17 -17 -27
-17 -19 -36 -49 -52 -83 -5 -12 -16 -27 -25 -34 -9 -7 -16 -19 -16 -26 0 -6
-9 -20 -20 -30 -11 -10 -20 -26 -20 -35 0 -9 -9 -25 -20 -35 -11 -10 -17 -21
-14 -26 2 -5 -4 -14 -16 -21 -11 -7 -20 -20 -20 -28 0 -9 -5 -21 -11 -27 -14
-14 -35 -50 -50 -85 -6 -16 -15 -28 -20 -28 -4 0 -6 -6 -3 -13 3 -8 -2 -20
-11 -27 -8 -7 -29 -41 -45 -76 -17 -35 -35 -66 -40 -69 -6 -3 -10 -16 -10 -28
0 -18 -5 -16 -43 21 -23 23 -48 42 -54 42 -6 0 -17 7 -24 16 -18 22 -49 32
-144 51 -67 12 -97 13 -184 3 -95 -10 -227 -48 -301 -87 -33 -17 -39 1 -11 31
12 12 21 28 21 35 0 7 14 24 30 38 17 13 30 32 30 42 0 9 20 37 45 61 25 24
45 49 45 54 0 14 172 186 185 186 6 0 24 14 40 30 16 17 36 30 46 30 9 0 29
14 42 30 14 17 32 30 41 30 8 0 18 5 21 11 4 5 17 15 28 20 12 5 36 18 52 28
17 11 36 20 44 20 8 1 19 8 25 16 6 8 23 16 37 17 15 2 33 9 40 15 8 6 32 16
54 23 22 7 45 15 50 19 6 3 20 4 32 3 11 -2 24 1 27 6 3 5 70 10 148 11 78 1
144 4 147 7 10 10 12 3 6 -18z m880 -875 c-5 -50 -80 -233 -97 -233 -4 0 -8
-8 -8 -19 0 -10 -7 -24 -15 -31 -8 -7 -15 -18 -15 -24 0 -7 -13 -25 -30 -41
-16 -16 -30 -33 -30 -39 0 -13 -91 -106 -104 -106 -5 0 -37 -27 -72 -60 -34
-33 -67 -60 -73 -60 -7 0 -25 -16 -42 -35 -17 -19 -38 -35 -46 -35 -9 0 -26
-11 -39 -25 -13 -14 -30 -25 -38 -25 -8 0 -26 -13 -39 -30 -14 -16 -32 -30
-40 -30 -8 0 -22 -9 -32 -20 -10 -11 -23 -20 -30 -20 -7 0 -20 -9 -30 -20 -10
-11 -26 -20 -36 -20 -10 0 -23 -9 -28 -19 -6 -10 -24 -24 -41 -29 -16 -6 -30
-16 -30 -21 0 -6 -7 -11 -15 -11 -20 0 -53 -19 -87 -49 -25 -22 -27 -23 -21
-3 3 11 14 28 24 38 10 9 19 23 19 29 0 7 7 18 15 25 8 7 15 21 15 31 0 11 5
19 10 19 6 0 10 9 10 19 0 11 11 28 25 39 14 11 25 26 25 34 0 8 9 23 20 33
11 10 20 23 20 30 0 6 11 22 25 35 13 12 22 26 20 30 -2 4 9 20 25 35 17 16
30 36 30 44 0 9 14 29 30 45 17 16 30 34 30 41 0 6 14 24 31 41 17 16 34 37
38 47 10 27 253 267 271 267 8 0 21 9 28 20 7 11 21 20 32 20 11 0 20 4 20 9
0 5 12 14 28 20 15 6 42 20 61 32 33 20 125 47 167 48 17 1 20 -4 19 -26z
m866 -880 c2 -107 -3 -207 -11 -222 -5 -9 -16 -49 -24 -88 -9 -40 -25 -93 -36
-117 -11 -25 -20 -52 -20 -60 0 -9 -4 -16 -10 -16 -5 0 -10 -9 -10 -20 0 -11
-7 -23 -15 -26 -8 -4 -15 -14 -15 -23 0 -9 -5 -22 -11 -28 -12 -12 -32 -45
-47 -78 -6 -11 -19 -29 -31 -39 -11 -11 -21 -27 -21 -36 0 -10 -18 -34 -40
-54 -22 -20 -40 -41 -40 -48 0 -16 -151 -168 -167 -168 -7 0 -31 -20 -54 -45
-23 -25 -49 -45 -59 -45 -9 0 -27 -11 -40 -25 -13 -14 -28 -25 -33 -25 -5 0
-25 -13 -44 -30 -45 -40 -57 -38 -33 5 11 19 17 35 13 35 -4 0 -2 5 5 12 7 7
12 20 12 30 0 10 4 18 8 18 13 0 43 136 49 222 7 90 -21 256 -44 265 -8 3 -12
11 -9 19 3 7 -2 18 -9 24 -8 7 -13 16 -10 20 2 3 -14 24 -35 45 -44 43 -51 65
-21 65 11 0 23 5 26 10 4 6 10 8 15 5 5 -3 11 -1 15 4 7 13 64 41 82 41 7 0
13 4 13 9 0 5 11 12 25 15 14 4 25 11 25 16 0 6 8 10 19 10 10 0 24 7 31 15 7
9 32 25 54 36 64 32 85 45 110 68 12 11 30 21 39 21 10 0 20 7 23 15 4 8 14
15 24 15 10 0 23 7 30 15 7 8 18 15 24 15 7 0 23 11 36 25 13 14 29 25 35 25
7 0 20 9 30 20 10 11 24 20 32 20 7 0 27 16 44 35 42 48 69 47 70 -2z" /> <path d="M5877 6554 c-3 -3 -24 -10 -48 -15 -48 -11 -131 -47 -140 -61 -3 -5
-14 -10 -23 -12 -24 -3 -246 -227 -246 -247 0 -9 -7 -19 -15 -23 -8 -3 -15
-13 -15 -21 0 -9 -10 -37 -22 -63 -16 -36 -22 -69 -23 -139 -2 -90 11 -173 27
-173 4 0 8 -9 8 -19 0 -11 5 -23 10 -26 6 -4 8 -10 5 -15 -3 -4 2 -13 10 -20
8 -7 15 -18 15 -24 0 -13 261 -276 274 -276 6 0 20 -9 32 -21 12 -11 32 -21
45 -21 13 -1 29 -5 34 -8 6 -4 40 -13 78 -20 74 -14 157 -7 201 15 16 8 39 15
52 15 14 0 27 7 30 15 4 8 14 15 23 15 20 0 293 274 308 310 12 27 26 62 27
70 1 3 5 11 10 19 5 8 8 34 7 58 0 23 3 43 9 43 13 0 13 87 1 95 -5 3 -9 18
-9 34 1 15 -11 53 -26 84 -14 31 -26 60 -26 64 0 14 -293 303 -307 303 -6 0
-14 4 -17 8 -3 5 -33 17 -68 27 -35 10 -67 22 -72 27 -11 9 -139 11 -149 2z
m176 -472 c21 -9 27 -18 27 -41 0 -16 5 -33 10 -36 13 -8 13 -112 1 -120 -5
-3 -12 -18 -16 -34 -5 -23 -13 -30 -41 -36 -46 -8 -173 -4 -180 6 -2 5 -12 5
-21 2 -12 -5 -15 -2 -11 8 3 8 1 25 -4 39 -12 31 -13 147 -1 178 5 13 20 29
33 36 30 16 163 14 203 -2z" />
  </g>
</svg>