<svg xmlns="http://www.w3.org/2000/svg" viewBox="0 0 1024 1024" width="1024" height="1024">
  <rect width="1024" height="1024" fill="white" />
  <g transform="translate(0.000000,1024.000000) scale(0.100000,-0.100000)" fill="#007AFF" stroke="none">
    <path d="M4988 9190 c-49 -33 -119 -104 -248 -255 -243 -283 -396 -507 -530
-773 -104 -208 -126 -260 -190 -447 -97 -285 -161 -551 -214 -900 -43 -278
-59 -609 -52 -1045 4 -201 3 -378 -2 -395 -6 -22 -24 -39 -70 -65 -96 -54
-257 -177 -315 -240 -195 -210 -306 -439 -361 -747 -96 -532 -39 -1256 140
-1783 80 -234 130 -348 171 -386 23 -21 35 -24 109 -24 150 0 176 29 195 213
22 221 100 551 176 747 69 178 234 342 360 357 58 6 75 -7 120 -89 l26 -48
163 0 c97 0 173 -4 187 -11 28 -13 43 -56 112 -318 25 -96 42 -177 38 -182 -4
-4 -26 -9 -48 -11 l-40 -3 -3 -543 -2 -542 135 0 135 0 2 277 c3 264 4 277 20
253 14 -21 15 -36 8 -100 -5 -41 -9 -243 -10 -447 l0 -373 120 0 c108 0 120 2
130 19 6 13 10 168 11 428 1 224 5 422 9 438 l7 30 7 -35 c4 -19 10 -164 14
-322 6 -235 10 -290 22 -301 11 -9 43 -11 125 -7 l110 5 3 603 2 602 -54 0
c-30 0 -57 3 -59 8 -3 4 6 48 19 97 14 50 36 131 49 180 46 177 64 229 81 242
13 9 64 13 185 13 l167 0 30 54 c17 29 38 61 47 70 25 25 74 19 150 -17 235
-113 337 -347 460 -1047 31 -174 47 -210 101 -228 51 -18 164 -11 200 13 71
46 249 578 303 905 36 219 41 297 41 680 0 381 -8 514 -35 630 -42 175 -148
420 -248 571 -90 137 -255 280 -417 363 l-85 43 -6 629 c-4 513 -9 652 -23
753 -9 68 -18 127 -21 130 -2 4 -11 49 -20 101 -39 234 -109 516 -177 715 -35
102 -113 305 -128 334 -5 9 -36 72 -69 141 -150 313 -359 606 -652 912 l-151
158 -107 0 c-103 0 -110 -1 -153 -30z m256 -561 c109 -126 220 -272 281 -370
89 -145 139 -228 175 -290 l38 -66 -57 -7 c-70 -8 -1161 -21 -1161 -14 0 34
147 285 268 459 127 182 324 413 346 406 6 -2 55 -55 110 -118z m688 -1219
c62 -189 96 -328 148 -600 54 -289 55 -301 55 -830 -1 -625 -12 -767 -94
-1180 -99 -501 -307 -1136 -375 -1149 -18 -3 -19 2 -12 90 3 52 12 132 19 179
7 49 12 200 12 360 0 225 -3 294 -19 380 -48 271 -146 464 -336 658 -91 92
-127 109 -220 98 -103 -12 -164 -57 -268 -194 -150 -200 -225 -377 -251 -597
-21 -172 -11 -768 15 -928 5 -34 4 -38 -12 -35 -64 12 -252 544 -349 988 -92
423 -114 592 -127 975 -21 620 18 1120 118 1490 37 136 92 322 119 403 4 10
163 12 772 10 l767 -3 38 -115z m-780 -2507 c33 -38 106 -182 131 -258 30 -89
57 -260 57 -353 0 -86 -37 -425 -61 -562 -41 -238 -125 -607 -147 -645 -16
-29 -116 390 -167 703 -53 325 -55 622 -4 816 24 92 86 226 130 279 35 42 40
44 61 20z m1407 -80 c188 -170 333 -475 372 -778 16 -128 13 -446 -5 -601 -16
-133 -50 -302 -65 -317 -4 -4 -13 5 -19 20 -6 15 -27 69 -46 118 -60 158 -135
275 -235 367 -101 94 -167 122 -378 164 l-21 4 24 77 c86 271 204 747 234 943
16 106 15 105 47 82 16 -11 57 -46 92 -79z m-2745 60 c4 -10 20 -81 37 -158
57 -270 164 -689 210 -821 16 -48 28 -93 25 -100 -3 -8 -18 -14 -33 -14 -57
-1 -170 -31 -232 -62 -70 -36 -179 -135 -228 -208 -71 -104 -165 -307 -179
-382 -14 -80 -31 -39 -69 162 -57 311 -56 612 4 876 65 283 141 429 320 614
105 109 132 127 145 93z" /> <path d="M4920 6976 c-58 -17 -163 -79 -215 -127 -58 -54 -110 -134 -135 -208
-20 -59 -21 -82 -18 -255 l3 -191 40 -74 c109 -201 271 -284 555 -285 161 0
236 20 342 91 84 55 118 95 171 202 l42 85 0 205 0 206 -30 60 c-64 127 -152
213 -276 271 -63 28 -67 29 -249 31 -128 1 -199 -2 -230 -11z m335 -394 c77
-73 98 -109 97 -170 -1 -111 -140 -234 -243 -217 -82 14 -210 153 -209 227 1
41 66 131 131 180 75 58 147 52 224 -20z" /> <path d="M4710 1550 l0 -120 135 0 135 0 0 120 0 120 -135 0 -135 0 0 -120z" /> <path d="M5294 1527 c-2 -7 -3 -62 -2 -123 l3 -109 133 -3 133 -3 -3 123 -3
123 -128 3 c-99 2 -129 0 -133 -11z" /> <path d="M5010 1264 c-6 -14 -10 -72 -10 -130 l0 -104 124 0 125 0 7 46 c7 49
0 166 -11 197 -6 15 -22 17 -116 17 -108 0 -110 0 -119 -26z" />
  </g>
</svg>