<?xml version="1.0" standalone="no"?>
<!DOCTYPE svg PUBLIC "-//W3C//DTD SVG 20010904//EN"
 "http://www.w3.org/TR/2001/REC-SVG-20010904/DTD/svg10.dtd">
<svg version="1.0" xmlns="http://www.w3.org/2000/svg"
 width="550.000000pt" height="550.000000pt" viewBox="0 0 550.000000 550.000000"
 preserveAspectRatio="xMidYMid meet">
<metadata>
Created by potrace 1.16, written by Peter Selinger 2001-2019
</metadata>
<g transform="translate(0.000000,550.000000) scale(0.100000,-0.100000)"
fill="#007AFF" stroke="none">
<path d="M2643 5068 c-75 -70 -224 -249 -299 -360 -165 -245 -267 -502 -335
-842 -47 -239 -62 -438 -57 -748 5 -251 4 -268 -13 -273 -39 -13 -167 -105
-216 -156 -167 -175 -233 -391 -234 -764 0 -301 43 -545 139 -793 58 -149 61
-152 130 -152 81 0 98 15 107 92 19 178 75 408 121 500 50 99 144 178 211 178
22 0 33 -8 51 -40 l23 -40 103 0 c71 0 107 -4 113 -12 6 -7 25 -69 43 -138 18
-69 35 -133 37 -142 4 -14 -1 -18 -26 -18 l-31 0 0 -315 0 -315 75 0 75 0 0
168 c0 167 0 167 20 142 10 -14 15 -26 10 -28 -6 -2 -10 -106 -10 -258 l0
-254 69 0 c58 0 71 3 75 18 3 9 5 129 3 266 -1 190 1 250 10 253 10 4 13 -42
15 -194 3 -181 4 -198 21 -197 9 1 42 2 72 3 l55 1 0 350 0 350 -36 0 c-29 0
-34 3 -30 18 3 9 21 76 40 149 19 72 37 136 41 142 4 7 47 11 110 11 l104 0
22 40 c19 33 28 40 53 40 41 0 126 -50 159 -94 74 -96 127 -263 166 -514 23
-153 31 -164 115 -160 56 3 62 5 83 37 30 45 115 307 143 441 34 168 46 332
38 555 -5 169 -10 215 -32 300 -29 111 -96 251 -158 333 -49 64 -144 140 -218
177 l-55 27 0 356 c-1 315 -3 373 -22 492 -92 583 -275 972 -625 1328 l-81 82
-64 0 c-61 0 -65 -2 -110 -42z m182 -305 c37 -43 88 -107 113 -142 52 -73 172
-269 172 -282 0 -5 -162 -9 -360 -9 l-360 0 29 58 c37 73 141 231 197 300 70
86 128 151 136 152 3 0 37 -35 73 -77z m409 -743 c37 -112 75 -289 98 -445 21
-144 17 -637 -5 -805 -32 -231 -86 -465 -157 -679 -55 -166 -85 -231 -106
-231 -14 0 -15 8 -9 58 34 272 30 472 -11 622 -28 103 -83 198 -158 276 -71
74 -71 74 -124 74 -69 0 -101 -18 -157 -86 -96 -118 -144 -224 -164 -361 -18
-119 -11 -440 12 -567 1 -6 -5 -11 -13 -11 -38 0 -163 359 -215 618 -60 301
-69 392 -69 702 -1 361 27 564 114 848 l31 97 449 -1 449 -1 35 -108z m-438
-1468 c89 -147 101 -313 48 -631 -26 -157 -83 -401 -93 -401 -3 0 -21 62 -39
138 -112 465 -112 730 -2 902 18 28 38 49 44 47 6 -2 25 -26 42 -55z m803 -12
c97 -96 151 -199 193 -368 32 -126 31 -351 -1 -515 -13 -65 -27 -115 -31 -110
-4 4 -19 43 -34 86 -64 179 -182 292 -318 305 -26 2 -50 8 -53 12 -3 4 9 47
26 96 45 134 129 495 129 556 0 15 33 -8 89 -62z m-1599 -7 c17 -101 96 -417
125 -502 14 -41 25 -78 25 -81 0 -4 -27 -10 -61 -13 -76 -7 -155 -52 -211
-122 -43 -53 -111 -188 -123 -242 -12 -60 -23 -44 -44 70 -42 217 -39 395 10
577 34 125 82 213 166 301 42 43 81 79 88 79 8 0 17 -26 25 -67z"/>
<path d="M2585 3782 c-67 -32 -117 -83 -149 -151 -17 -38 -21 -65 -21 -161 0
-105 2 -119 27 -166 59 -112 157 -164 311 -164 113 0 149 10 218 58 41 28 62
53 86 101 32 60 33 68 33 174 0 90 -4 121 -20 156 -34 73 -77 118 -145 151
-58 28 -71 30 -171 30 -99 0 -115 -3 -169 -28z m243 -208 c71 -60 78 -114 22
-178 -36 -40 -80 -61 -115 -52 -35 9 -96 65 -112 104 -13 31 -12 37 12 77 29
51 94 94 130 87 13 -2 42 -19 63 -38z"/>
<path d="M2510 640 l0 -70 75 0 75 0 0 70 0 70 -75 0 -75 0 0 -70z"/>
<path d="M2850 560 l0 -70 75 0 75 0 0 70 0 70 -75 0 -75 0 0 -70z"/>
<path d="M2687 484 c-4 -4 -7 -38 -7 -76 l0 -68 70 0 69 0 7 35 c3 19 2 51 -3
72 l-9 38 -60 3 c-33 2 -63 0 -67 -4z"/>
</g>
</svg>
